<?xml version="1.0" standalone="no"?>
<!DOCTYPE svg PUBLIC "-//W3C//DTD SVG 20010904//EN"
 "http://www.w3.org/TR/2001/REC-SVG-20010904/DTD/svg10.dtd">
<svg version="1.0" xmlns="http://www.w3.org/2000/svg"
 width="588.000000pt" height="209.000000pt" viewBox="0 0 588.000000 209.000000"
 preserveAspectRatio="xMidYMid meet">
<metadata>
Created by potrace 1.16, written by Peter Selinger 2001-2019
</metadata>
<g transform="translate(0.000000,209.000000) scale(0.100000,-0.100000)"
fill="#000000" stroke="none">
<path d="M510 1901 c-130 -42 -194 -161 -143 -268 26 -55 84 -89 223 -133 150
-47 180 -70 180 -139 0 -60 -47 -105 -126 -121 -100 -21 -190 15 -215 85 -12
33 -16 35 -56 35 -49 0 -52 -8 -27 -68 36 -87 122 -135 244 -136 123 -1 213
45 251 128 36 79 20 157 -45 214 -43 38 -77 53 -181 81 -92 26 -151 54 -165
80 -5 11 -10 38 -10 59 0 33 6 45 35 71 43 38 69 45 145 39 69 -5 107 -27 130
-76 13 -28 20 -32 58 -32 48 0 52 11 26 63 -42 84 -106 119 -219 123 -44 2
-91 0 -105 -5z"/>
<path d="M4439 1750 c-402 -99 -669 -493 -610 -900 49 -331 293 -598 619 -677
99 -24 285 -21 386 6 228 61 421 218 521 426 67 137 79 196 79 365 0 137 -2
150 -32 240 -43 124 -98 215 -186 308 -116 123 -258 204 -418 237 -96 21 -265
18 -359 -5z m49 -170 l122 -85 0 -147 0 -147 -67 -54 c-38 -29 -84 -65 -104
-80 l-37 -28 -133 58 -132 58 -49 145 -48 144 53 54 c78 80 229 177 262 169 6
-1 66 -40 133 -87z m510 49 c41 -22 106 -71 145 -109 l72 -68 -48 -144 -47
-143 -137 -58 -136 -57 -96 73 -96 74 -3 150 -2 149 117 86 c65 48 127 87 138
87 11 1 53 -18 93 -40z m-735 -582 l139 -62 33 -104 c19 -58 31 -109 28 -115
-4 -6 -42 -55 -85 -108 l-79 -98 -159 0 -159 0 -35 73 c-36 76 -61 158 -72
243 l-6 51 123 91 c68 50 126 91 129 90 3 0 67 -27 143 -61z m1005 -33 l123
-89 -6 -58 c-8 -74 -39 -175 -76 -249 l-29 -58 -154 0 -154 0 -91 100 c-50 55
-91 104 -91 108 0 4 17 59 38 122 l38 113 120 53 c65 29 128 52 139 50 11 -1
75 -43 143 -92z m-465 -347 c37 -40 79 -86 93 -104 l26 -32 -42 -143 c-23 -79
-47 -148 -54 -155 -6 -7 -53 -18 -103 -24 -74 -10 -112 -10 -185 0 -51 6 -98
17 -104 24 -18 19 -95 289 -86 301 5 6 45 57 90 113 l82 102 108 -5 107 -6 68
-71z"/>
<path d="M1170 1720 c-120 -23 -200 -135 -200 -280 0 -116 48 -209 129 -254
63 -34 170 -37 230 -7 49 25 105 88 122 137 20 55 17 209 -4 256 -50 110 -162
171 -277 148z m138 -97 c99 -71 99 -295 0 -366 -38 -28 -114 -33 -158 -10
-127 66 -127 320 0 386 44 23 120 18 158 -10z"/>
<path d="M1772 1719 c-120 -23 -192 -125 -195 -274 -2 -128 57 -236 147 -270
70 -27 181 -18 234 19 37 26 82 93 82 124 0 7 -16 12 -39 12 -34 0 -42 -4 -60
-35 -37 -63 -112 -81 -186 -45 -56 27 -86 83 -93 170 -5 77 8 126 46 172 68
80 192 74 237 -12 13 -26 21 -30 55 -30 43 0 46 4 29 47 -34 90 -147 144 -257
122z"/>
<path d="M2340 1720 c-75 -14 -146 -74 -177 -149 -24 -57 -28 -171 -9 -231 41
-125 113 -180 235 -180 106 0 171 39 206 122 8 21 15 40 15 43 0 3 -19 5 -43
5 -39 0 -45 -3 -59 -33 -31 -66 -142 -87 -207 -40 -70 51 -97 198 -54 294 29
66 73 94 147 94 57 0 59 -1 101 -47 33 -37 50 -48 72 -48 41 0 45 7 27 49 -38
91 -145 143 -254 121z"/>
<path d="M2900 1719 c-63 -12 -118 -55 -153 -118 -26 -47 -32 -68 -35 -142 -9
-194 78 -299 249 -299 91 0 166 32 199 84 27 45 26 50 -18 62 -36 10 -40 9
-54 -16 -19 -33 -75 -60 -125 -60 -85 1 -152 57 -168 143 l-7 37 202 0 203 0
-5 73 c-9 132 -75 216 -187 237 -30 5 -54 10 -55 9 0 -1 -21 -5 -46 -10z m118
-83 c36 -19 68 -55 77 -86 3 -14 9 -33 11 -42 5 -17 -7 -18 -156 -18 l-162 0
7 28 c25 102 139 162 223 118z"/>
<path d="M3490 1715 c-19 -9 -47 -30 -62 -48 l-27 -32 -1 43 0 42 -40 0 -40 0
0 -275 0 -275 45 0 45 0 0 190 c0 213 6 237 63 267 18 9 53 16 80 16 l48 -1
-3 42 c-3 39 -5 41 -38 43 -19 2 -51 -4 -70 -12z"/>
<path d="M1010 925 l0 -65 -40 0 c-39 0 -40 -1 -40 -35 0 -34 1 -35 39 -35
l39 0 4 -198 c3 -219 7 -234 71 -272 32 -20 131 -28 140 -12 2 4 0 22 -5 40
-8 28 -13 32 -43 32 -22 0 -43 8 -55 20 -19 19 -20 33 -20 205 l0 185 61 0 60
0 -3 33 c-3 32 -4 32 -60 35 l-58 3 0 64 0 65 -45 0 -45 0 0 -65z"/>
<path d="M1950 925 l0 -65 -40 0 c-39 0 -40 -1 -40 -35 0 -34 1 -35 40 -35
l40 0 0 -187 c0 -211 7 -239 69 -280 44 -30 141 -33 141 -5 0 46 -12 62 -44
62 -17 0 -42 7 -54 16 -21 15 -22 20 -22 205 l0 189 55 0 55 0 0 35 0 35 -55
0 -55 0 0 65 0 65 -45 0 -45 0 0 -65z"/>
<path d="M530 838 c-55 -29 -81 -64 -87 -120 -10 -89 38 -136 168 -169 104
-26 137 -43 145 -75 16 -65 -44 -109 -139 -102 -60 5 -75 14 -112 71 -8 12
-16 13 -47 3 l-37 -11 19 -42 c62 -139 341 -130 396 13 32 85 -15 171 -109
194 -126 32 -182 55 -195 82 -48 102 164 153 218 53 11 -20 16 -21 51 -12 l39
9 -22 41 c-34 61 -86 87 -173 87 -54 0 -81 -5 -115 -22z"/>
<path d="M1434 836 c-47 -22 -94 -69 -94 -94 0 -6 16 -16 35 -22 33 -11 37
-10 64 19 33 35 68 51 116 51 67 0 104 -29 119 -91 10 -45 -10 -57 -122 -73
-126 -19 -184 -43 -212 -88 -43 -71 -12 -182 60 -220 84 -43 186 -32 245 28
l35 35 0 -36 c0 -34 1 -35 40 -35 l40 0 0 208 c0 196 -1 210 -22 252 -32 62
-88 90 -182 90 -54 0 -84 -6 -122 -24z m241 -343 c-12 -84 -80 -130 -177 -121
-57 6 -84 28 -94 75 -5 27 -2 37 23 61 23 24 43 32 103 41 41 7 91 15 110 19
41 9 46 -2 35 -75z"/>
</g>
</svg>
